# xmcd
#
# Track frame offsets:
#	150
#	28920
#	52102
#	76082
#	90760
#	107347
#	133692
#	146562
#	169345
#
# Disc length: 3492 seconds
# Revision: 2
# Processed by: cddbd v1.5.2PL0 Copyright (c) Steve Scherf et al.
# Submitted via: dBpowerAMP V12.0
#
DISCID=6d0da209
DTITLE=Peps Persson - Early Peps - Linkin' Louisiana, Disc 1
DYEAR=2005
DGENRE=Blues
TTITLE0=Blues With a Feeling
TTITLE1=Dimples
TTITLE2=Five Long Years
TTITLE3=Rooster Blues
TTITLE4=Shake Your Money Maker
TTITLE5=Sky Is Crying
TTITLE6=Dust My Blues
TTITLE7=Sportin' Life Blues
TTITLE8=Minglewood Blues
EXTD=
EXTT0=
EXTT1=
EXTT2=
EXTT3=
EXTT4=
EXTT5=
EXTT6=
EXTT7=
EXTT8=
PLAYORDER=
